# xmcd
#
# Track frame offsets:
#        150
#        16980
#        35670
#        59402
#        99572
#        129975
#        160215
#        181690
#        200120
#        222297
#        245345
#        263825
#        288915
#
# Disc length: 4176 seconds
#
# Revision: 0
# Processed by: cddbd v1.5PL3 Copyright (c) Steve Scherf et al.
# Submitted via: ExactAudioCopy v0.95a3
#
DISCID=b8104e0d
DTITLE=Various Artist - UK Club Special
DYEAR=1991
DGENRE=House
TTITLE0=Louise Thomas/It's Too Late (Club Mix)
TTITLE1=Frances Nero/Footstep Following Me (UK Club Mix)
TTITLE2=Sharon Dee Clarke/Keep In My Faith In Love (Nomad Mix)
TTITLE3=Gazebo/I Like Chopin (Ground Beat Mix)
TTITLE4=Hannah Jones/Every Kinda People
TTITLE5=Yunie/I Can See For Miles
TTITLE6=Barbara Jean English/Better If You Dom't Get To Know Me
TTITLE7=Rhythm Mode B/Flex With The Posse (Remix)
TTITLE8=Wendy Peddie/Gonna Get You (Ragamuffin Mix)
TTITLE9=Sorell Johnson/People Of The World
TTITLE10=Koffi/Begin With You
TTITLE11=Network/It's A Shame
TTITLE12=Yvone Gage feat. M.E./Winter Days and Summer Night (Remix)
EXTD=
EXTT0=
EXTT1=
EXTT2=
EXTT3=
EXTT4=
EXTT5=
EXTT6=
EXTT7=
EXTT8=
EXTT9=
EXTT10=
EXTT11=
EXTT12=
PLAYORDER=
